# xmcd
#
# Track frame offsets:
# 150
# 15867
# 30548
# 45045
# 62063
# 77010
# 88027
# 105551
# 115867
# 128855
# 143645
# 151803
# 158072
# 166113
# 179375
# 189728
# 203109
# 216387
# 220103
# 225610
# 237850
# 253334
# 272344
# 284161
# 300231
# 307920
# 314745
#
# Disc length: 4358 seconds
#
#
# Revision: 0
# Processed by: cddbd v1.5.1PL2 Copyright (c) Steve Scherf et al.
# Submitted via: FreeRIP 2.942 
#
DISCID=6611041b
DTITLE=Estakazero - Forró Estaka Zero
DYEAR=1900
DGENRE=Country - Sertaneja
TTITLE0=Deixa Doido eu
TTITLE1=Sapatilha 37
TTITLE2=Pra Você
TTITLE3=Cem Anos
TTITLE4=Vem Viver
TTITLE5=Flor Serena
TTITLE6=Inovação
TTITLE7=Janaina
TTITLE8=Versos Sinceros
TTITLE9=Anjo do Céu
TTITLE10=Chineleiro
TTITLE11=Forró de Poerão
TTITLE12=Cadê as Mulher
TTITLE13=Xote Brasileiro
TTITLE14=Me Leva
TTITLE15=Diz Pra Mim
TTITLE16=Cidadão Comum
TTITLE17=Baião
TTITLE18=Canto da Ema
TTITLE19=Forrobodó
TTITLE20=Preciso te Ver
TTITLE21=Algo Especial
TTITLE22=Rei do Baião
TTITLE23=Botando Pé na Estrada
TTITLE24=
TTITLE25=
TTITLE26=
EXTD=BY: eu.vilasboas@bol.com.br
EXTT0=
EXTT1=
EXTT2=
EXTT3=
EXTT4=
EXTT5=
EXTT6=
EXTT7=
EXTT8=
EXTT9=
EXTT10=
EXTT11=
EXTT12=
EXTT13=
EXTT14=
EXTT15=
EXTT16=
EXTT17=
EXTT18=
EXTT19=
EXTT20=
EXTT21=
EXTT22=
EXTT23=
EXTT24=
EXTT25=
EXTT26=
PLAYORDER=
